<svg xmlns="http://www.w3.org/2000/svg" width="1611" height="675" viewBox="0 0 1611 675">
  <g id="Grupo_4" data-name="Grupo 4" transform="translate(-46 -123)">
    <g id="Grupo_3" data-name="Grupo 3">
      <circle id="Elipse_1" data-name="Elipse 1" cx="300" cy="300" r="300" transform="translate(46 198)" fill="#7b1fa2"/>
      <g id="scissors" transform="translate(103.758 276.83)">
        <g id="Grupo_2" data-name="Grupo 2" transform="translate(64.004 0)">
          <g id="Grupo_1" data-name="Grupo 1">
            <path id="Trazado_1" data-name="Trazado 1" d="M418.714,352.843C412.66,325.837,390.051,304,361.1,297.219a83.251,83.251,0,0,0-57.152,6.569L281.6,256.768,367.113,65.783a43.822,43.822,0,0,0,3.868-18.008c0-15.686-8.374-30.246-22.4-38.949L336.864,1.555A10.434,10.434,0,0,0,328.605.376,9.678,9.678,0,0,0,322.32,5.5L242.25,173.974,162.178,5.5A9.678,9.678,0,0,0,155.892.377a10.4,10.4,0,0,0-8.258,1.179l-11.72,7.272c-14.022,8.7-22.4,23.262-22.4,38.948a43.826,43.826,0,0,0,3.868,18.008l85.511,191L180.533,303.8a82.079,82.079,0,0,0-37.308-8.9C99.534,294.9,64,327.969,64,368.618s35.529,73.722,79.22,73.722,79.22-33.072,79.22-73.722c0-27.26,9.586-47.189,19.792-60.813,9.922,13.216,19.189,32.14,19.78,58.185.928,40.767,33.9,74.253,75.042,76.251,1.431.063,2.843.1,4.236.1,23.228,0,44.967-9.269,60.169-25.783A70.206,70.206,0,0,0,418.714,352.843ZM335.668,22.965l1.934,1.2a27.834,27.834,0,0,1,13.577,23.614,26.465,26.465,0,0,1-2.36,10.916L270.548,233.5l-17.47-36.759ZM202.647,368.618c0,30.49-26.65,55.292-59.413,55.292s-59.413-24.8-59.413-55.292,26.65-55.292,59.413-55.292a61.623,61.623,0,0,1,35.7,11.394,10.649,10.649,0,0,0,8.451,1.584,9.753,9.753,0,0,0,6.575-5.2l19.473-40.947a9.672,9.672,0,0,0,3.89,4.194,85.765,85.765,0,0,1,11.717,8.911C215.922,309.315,202.647,334.082,202.647,368.618Zm183.77,35.944c-12.088,13.157-29.938,20.176-48.312,19.267-30.847-1.485-55.564-27.07-56.28-58.234-1.315-58.46-40.246-87.986-51.386-95.257L135.692,58.692a26.468,26.468,0,0,1-2.36-10.916,27.834,27.834,0,0,1,13.577-23.614l1.934-1.2L290.528,321.1A9.7,9.7,0,0,0,297.1,326.3a10.493,10.493,0,0,0,8.451-1.575,62.171,62.171,0,0,1,50.71-9.629c21.312,4.994,38.622,21.68,43.07,41.523A52.807,52.807,0,0,1,386.417,404.562Z" transform="translate(-64.004 0)" fill="#fff"/>
            <path id="Trazado_2" data-name="Trazado 2" d="M362.686,384.009a42.667,42.667,0,1,0,42.667,42.667A42.716,42.716,0,0,0,362.686,384.009Zm0,64a21.333,21.333,0,1,1,21.333-21.333A21.354,21.354,0,0,1,362.686,448.009Z" transform="translate(-91.528 -69.667)" fill="#fff"/>
            <path id="Trazado_3" data-name="Trazado 3" d="M149.352,384.009a42.667,42.667,0,1,0,42.667,42.667A42.716,42.716,0,0,0,149.352,384.009Zm0,64a21.333,21.333,0,1,1,21.333-21.333A21.354,21.354,0,0,1,149.352,448.009Z" transform="translate(-64.004 -69.667)" fill="#fff"/>
            <circle id="Elipse_2" data-name="Elipse 2" cx="10.667" cy="10.667" r="10.667" transform="translate(167.571 247.112)" fill="#fff"/>
          </g>
        </g>
      </g>
    </g>
    <text id="Looki" transform="translate(646 623)" fill="#7b1fa2" font-size="500" font-family="Lobster-Regular, Lobster"><tspan x="0" y="0">Looki</tspan></text>
  </g>
</svg>
