<svg xmlns="http://www.w3.org/2000/svg" width="600" height="600" viewBox="0 0 600 600">
  <g id="Grupo_3" data-name="Grupo 3" transform="translate(-46 -198)">
    <circle id="Elipse_1" data-name="Elipse 1" cx="300" cy="300" r="300" transform="translate(46 198)" fill="#7b1fa2"/>
    <g id="scissors" transform="translate(89.996 242)">
      <g id="Grupo_2" data-name="Grupo 2">
        <g id="Grupo_1" data-name="Grupo 1">
          <path id="Trazado_1" data-name="Trazado 1" d="M446.1,408.415a85.071,85.071,0,0,0-123.63-56.781L298.4,297.208,390.517,76.144a54.194,54.194,0,0,0-19.959-65.927L357.932,1.8a10.663,10.663,0,0,0-15.667,4.562L256.013,201.375,169.758,6.363A10.663,10.663,0,0,0,154.091,1.8l-12.625,8.417a54.192,54.192,0,0,0-19.959,65.926l92.114,221.083L189.53,351.644a83.471,83.471,0,0,0-40.189-10.3,85.333,85.333,0,1,0,85.337,85.333c0-31.553,10.326-54.621,21.32-70.391,10.688,15.3,20.671,37.2,21.307,67.349,1,47.188,36.522,85.948,80.836,88.26,1.542.073,3.063.115,4.563.115a85.4,85.4,0,0,0,83.4-103.593ZM356.644,26.582l2.083,1.385A32.8,32.8,0,0,1,370.81,67.935L286.5,270.281l-18.819-42.548ZM213.352,426.675a64,64,0,1,1-64-64,63.284,63.284,0,0,1,38.458,13.188,10.825,10.825,0,0,0,9.1,1.833A10.68,10.68,0,0,0,204,371.675l20.977-47.4a10.927,10.927,0,0,0,4.19,4.854,93.174,93.174,0,0,1,12.622,10.314C227.652,358.031,213.352,386.7,213.352,426.675ZM411.311,468.28a63.911,63.911,0,0,1-52.042,22.3c-33.229-1.719-59.854-31.333-60.625-67.406-1.417-67.667-43.354-101.844-55.354-110.26L141.227,67.936A32.8,32.8,0,0,1,153.31,27.968l2.083-1.385L308.018,371.677a10.662,10.662,0,0,0,16.187,4.187,63.235,63.235,0,0,1,54.625-11.146c22.958,5.781,41.6,25.094,46.4,48.063A64.338,64.338,0,0,1,411.311,468.28Z" fill="#fff"/>
          <path id="Trazado_2" data-name="Trazado 2" d="M362.686,384.009a42.667,42.667,0,1,0,42.667,42.667A42.716,42.716,0,0,0,362.686,384.009Zm0,64a21.333,21.333,0,1,1,21.333-21.333A21.354,21.354,0,0,1,362.686,448.009Z" fill="#fff"/>
          <path id="Trazado_3" data-name="Trazado 3" d="M149.352,384.009a42.667,42.667,0,1,0,42.667,42.667A42.716,42.716,0,0,0,149.352,384.009Zm0,64a21.333,21.333,0,1,1,21.333-21.333A21.354,21.354,0,0,1,149.352,448.009Z" fill="#fff"/>
          <circle id="Elipse_2" data-name="Elipse 2" cx="10.667" cy="10.667" r="10.667" transform="translate(245.337 288.004)" fill="#fff"/>
        </g>
      </g>
    </g>
  </g>
</svg>
